<svg xmlns="http://www.w3.org/2000/svg" width="1914" height="1085" viewBox="0 0 1914 1085">
  <defs>
    <style>
      .cls-1 {
        fill-rule: evenodd;
      }
    </style>
  </defs>
  <path id="Color_Fill_1" data-name="Color Fill 1" class="cls-1" d="M1912,1V634c-40.63.525-140.08,11.124-161-11,33.89-56.778-7.44-112.942-64-123-26.8-4.767-48.96,12.9-69,18v-2c-9.69-19.235,3.81-48.6-15-60-24.46-14.82-86.74-4.994-124-11l-155-2c-47.55,0-103.02-5.251-147,2l-36-1c-39.99,0-76.2-.823-104,16-3.83,40.09-2.75,87.81,4,125q4.995,26.5,10,53c-24.7,4.285-53.426,2-82,2l-80-1-101,1c-17.08-2.948-40.57-10.473-64-6-15.941,3.043-39.616,9.881-63,6-14.1-2.339-37.927-4.694-55-2-21.667,3.418-57.549,6.394-82,2-17.454-3.137-38.68-10.71-64-6-53.986,10.043-125.985,8.716-177,0-26.225-4.481-54.233,1.993-77,4L1,640V255l1-79L1,91V1H263C399.2,1,527.607,1,663,1,1080.1,1,1506.2,6.063,1912,1ZM1677,528c43.41-.865,75.09,41.813,52,83-5.42,9.672-36.86,41-54,37q-8.505-4-17-8c-18.77-4.542-40.71.93-57-3-2.77-7.693-1.13-19.593,2-28,3.37-9.065,12.3-13.47,17-21,10.47-16.769,11.44-37.575,27-49C1655.82,532.524,1665.42,532.525,1677,528Z"/>
</svg>
